<?xml version="1.0" encoding="UTF-8" standalone="no"?>
<!-- Generator: Adobe Illustrator 18.1.1, SVG Export Plug-In . SVG Version: 6.00 Build 0)  -->

<svg
   version="1.1"
   id="Capa_1"
   x="0px"
   y="0px"
   viewBox="0 0 280.002 280.002"
   style="enable-background:new 0 0 280.002 280.002;"
   xml:space="preserve"
   sodipodi:docname="owl.svg"
   inkscape:version="1.1.1 (3bf5ae0d25, 2021-09-20)"
   xmlns:inkscape="http://www.inkscape.org/namespaces/inkscape"
   xmlns:sodipodi="http://sodipodi.sourceforge.net/DTD/sodipodi-0.dtd"
   xmlns="http://www.w3.org/2000/svg"
   xmlns:svg="http://www.w3.org/2000/svg"><defs
   id="defs47" /><sodipodi:namedview
   id="namedview45"
   pagecolor="#ffffff"
   bordercolor="#666666"
   borderopacity="1.0"
   inkscape:pageshadow="2"
   inkscape:pageopacity="0.0"
   inkscape:pagecheckerboard="0"
   showgrid="false"
   inkscape:zoom="2.2499838"
   inkscape:cx="-4.6667003"
   inkscape:cy="128.88982"
   inkscape:window-width="1920"
   inkscape:window-height="2029"
   inkscape:window-x="1920"
   inkscape:window-y="0"
   inkscape:window-maximized="0"
   inkscape:current-layer="Capa_1" />
<g
   id="g12"
   style="fill:#58575b;fill-opacity:1">
        <g
   id="g10"
   style="fill:#58575b;fill-opacity:1">
                <path
   style="fill:#58575b;fill-opacity:1"
   d="M183.255,98.807c8.986-28.332,3.26-50.848-9.545-66.221c-2.379-5.635-2.802-10.562-1.756-14.947    c1.828-2.376,4.832-3.667,8.395-4.447c-2.25-0.429-4.457-0.62-6.582-0.353c2.547-4.863,6.984-9.037,12.438-12.839    c-11.791,2.475-22.043,7.299-27.397,19.649C137.952,6.58,110.007,5.378,89.859,18.657C84.393,7.041,74.379,2.404,62.911,0.001    c5.446,3.8,9.877,7.97,12.424,12.823c-2.079-0.242-4.243-0.047-6.444,0.369c3.443,0.752,6.364,1.984,8.206,4.209    c1.162,4.608,0.698,9.807-1.965,15.811c-9.959,14.668-14.391,36.376-8.596,65.951c-22.123,92.29,20.481,114.446,61.513,132.6    c-1.054,4.916-3.736,7.779-7.996,8.643c-13.521-5.423-28.479,6.781-21.061,21.801c2.694-12.213,7.925-15.994,14.745-14.496    c-2.595,5.15-2.4,10.66,0.123,16.477c2.687-7.592,6.848-12.645,14.492-11.644c-2.49,5.776-1.72,12.39,0.246,19.323    c10.615-24.438,23.82-22.383,38.892-1.238c3.545-10.217,2.699-18.566-9.287-22.172l0.035-2.373    c10.469,5.975,19.355,13.055,25,22.891c12.761,14.112,21.596,15.618,24.771-0.991v-0.001    C228.607,197.58,222.276,139.563,183.255,98.807z M126.287,109.074c-42.255-3.484-57.022-22.135-50.536-54.625    c10.454-33.17,34.827-29.883,49.793-3.718c14.405-28.814,35.89-24.457,48.06-3.964C187.42,77.837,168.329,107.448,126.287,109.074    z M135.548,235.068l13.123,6.013C142.08,248.406,133.493,248.268,135.548,235.068z M197.508,255.834    c-6.438-50.953-66.64-86.289-54.499-135.755l5.268-0.495c-12.141,49.466,48.06,84.802,54.499,135.755L197.508,255.834z"
   id="path2" />
                <path
   style="fill:#58575b;fill-opacity:1"
   d="M120.166,84.808c-0.281,8.138,2.379,14.322,6.071,19.82c3.5-4.974,5.621-11.458,5.822-20.068    C130.931,75.997,121.463,75.198,120.166,84.808z"
   id="path4" />
                <path
   style="fill:#58575b;fill-opacity:1"
   d="M136.477,71.5c9.585,12.926,19.29,11.029,29.095-2.995C154.46,57.007,144.647,56.978,136.477,71.5z    "
   id="path6" />
                <path
   style="fill:#58575b;fill-opacity:1"
   d="M85.114,66.731c5.486,15.127,15.328,16.086,28.736,5.449    C106.492,57.988,97.096,55.149,85.114,66.731z"
   id="path8" />
        </g>
</g>
<g
   id="g14">
</g>
<g
   id="g16">
</g>
<g
   id="g18">
</g>
<g
   id="g20">
</g>
<g
   id="g22">
</g>
<g
   id="g24">
</g>
<g
   id="g26">
</g>
<g
   id="g28">
</g>
<g
   id="g30">
</g>
<g
   id="g32">
</g>
<g
   id="g34">
</g>
<g
   id="g36">
</g>
<g
   id="g38">
</g>
<g
   id="g40">
</g>
<g
   id="g42">
</g>
<path
   style="fill:#303030;stroke-width:0.444448;fill-opacity:1"
   d="m 197.23596,279.34525 c -4.01792,-1.02019 -11.32367,-6.9807 -14.66288,-11.96294 -5.06806,-7.56176 -9.88213,-12.2058 -18.77997,-18.11669 -4.64152,-3.08339 -5.35952,-3.43147 -5.63547,-2.73205 -0.61025,1.5467 -0.35348,1.85455 2.73368,3.27751 3.80071,1.75186 6.80906,4.76353 7.5744,7.58276 0.64816,2.38757 0.33233,8.91069 -0.53268,11.00219 l -0.62254,1.50521 -1.29192,-1.72744 c -11.80979,-15.79095 -22.92914,-18.42148 -31.40868,-7.43042 -1.04522,1.3548 -2.82369,4.24998 -3.95215,6.43372 l -2.05175,3.97045 -0.57336,-2.3506 c -0.91904,-3.76777 -1.08448,-10.8494 -0.31967,-13.6834 0.36273,-1.34413 0.56618,-2.53721 0.4521,-2.65129 -0.11408,-0.11408 -1.23823,-0.16257 -2.4981,-0.10775 -4.49283,0.19548 -7.97487,2.93626 -10.55391,8.30716 l -1.2772,2.6598 -0.50663,-1.32646 c -1.52122,-3.98293 -1.57119,-8.70213 -0.13027,-12.30335 0.60441,-1.51056 0.61795,-1.83738 0.09,-2.17166 -1.75715,-1.11257 -6.0427,-0.0388 -8.42107,2.10988 -2.31924,2.0953 -3.46088,4.03566 -4.904168,8.3353 l -1.205838,3.59226 -0.766078,-2.63337 c -1.003059,-3.44799 -0.718084,-7.82115 0.700637,-10.75184 2.882607,-5.95468 10.418787,-9.7687 16.964207,-8.58551 5.68944,1.02846 5.52569,1.03292 7.64314,-0.20799 2.02931,-1.18926 3.92543,-3.78346 4.67459,-6.39561 l 0.37734,-1.3157 -7.56545,-3.47815 C 92.688879,215.27168 77.518052,202.44862 68.875115,184.31163 c -5.630182,-11.8148 -7.985788,-23.58475 -7.985788,-39.90155 0,-12.77984 1.235562,-23.47678 4.501146,-38.96889 l 1.335859,-6.337392 -0.908138,-5.662694 c -3.397918,-21.187713 -1.204039,-40.252983 6.245398,-54.273815 1.250167,-2.352982 2.74308,-5.178155 3.317585,-6.278163 1.732847,-3.317895 2.519272,-7.2757 2.311056,-11.630733 -0.219143,-4.583557 -0.51582,-5.03751 -4.492983,-6.874807 l -2.754298,-1.27238 2.555518,-0.13329 2.555519,-0.13329 -0.665247,-1.286445 C 73.786912,9.4236078 70.07112,5.2353341 67.397851,3.1125309 66.013568,2.0132915 65.089988,1.0442418 65.345452,0.95908713 66.024608,0.73270194 72.716344,3.0199552 75.559054,4.4501236 c 5.336385,2.6847371 9.914086,6.9785654 12.787413,11.9944394 0.630136,1.100008 1.196803,2.070041 1.259259,2.15563 0.06246,0.08559 2.776883,-1.16813 6.032059,-2.786042 10.083975,-5.012013 21.145245,-7.1048558 32.105005,-6.0744102 10.08032,0.9477612 18.69715,3.4874502 27.16987,8.0079432 l 4.02269,2.146245 1.44341,-2.783944 c 2.69189,-5.191943 7.57311,-9.7778775 13.62343,-12.7992893 2.81747,-1.4069924 8.50945,-3.42180041 9.66683,-3.42180041 0.25463,0 -1.24324,1.59633851 -3.3286,3.54741891 -3.24317,3.0343303 -6.56139,7.1601168 -6.56139,8.1582418 0,0.161934 1.00001,0.294426 2.22224,0.294426 2.6455,0 2.87673,0.552102 0.52619,1.256343 -0.93283,0.279481 -2.48284,1.188273 -3.44447,2.019538 l -1.74842,1.51139 0.0326,4.606415 c 0.0411,5.801399 1.01499,8.780561 4.42341,13.531185 11.71662,16.330531 14.56259,36.17291 8.42143,58.715063 -0.95611,3.509545 -1.05152,4.33552 -0.57214,4.952982 0.31643,0.407577 1.88931,2.241052 3.4953,4.074402 15.42573,17.60954 25.57792,39.18505 29.69669,63.11157 1.79687,10.43831 2.05858,14.13927 2.05858,29.11132 0,18.10968 -1.08902,28.81132 -4.72632,46.44478 -2.7043,13.1103 -7.53473,30.97906 -9.10201,33.6702 -1.85796,3.19024 -4.41413,4.31743 -7.82617,3.45108 z m 3.77764,-23.62098 2.02512,-0.27757 -0.22437,-1.61133 c -0.56487,-4.05661 -2.92089,-12.74011 -4.71808,-17.38924 -4.49556,-11.62948 -9.3667,-20.08152 -24.97438,-43.33363 -17.15314,-25.55452 -22.32459,-35.74869 -25.11567,-49.50903 -1.15722,-5.70526 -1.26904,-14.94933 -0.24517,-20.26925 0.37637,-1.95557 0.68434,-3.62962 0.68439,-3.72011 1.2e-4,-0.26414 -5.28798,0.19328 -5.57712,0.48242 -0.14439,0.14439 -0.57058,2.03195 -0.94708,4.19457 -1.10302,6.33562 -0.61496,16.71854 1.09626,23.32157 3.43045,13.23701 8.09697,22.00612 25.63199,48.16652 5.89859,8.80006 11.97705,18.10013 13.5077,20.66681 3.68384,6.17728 8.56731,16.09248 10.50725,21.33349 1.45279,3.92489 3.80561,12.70333 4.4373,16.55567 0.29887,1.82268 0.42413,1.86716 3.91186,1.38911 z m -57.19393,-10.60425 c 1.21846,-0.60719 2.89033,-1.80034 3.71525,-2.65144 l 1.49986,-1.54747 -1.96131,-0.85375 c -1.07872,-0.46955 -3.93632,-1.77643 -6.35022,-2.90415 -2.41389,-1.12772 -4.66391,-2.05041 -5.00003,-2.05041 -0.83276,0 -0.83151,5.72339 0.002,7.71749 0.80995,1.93847 2.72714,3.39371 4.47101,3.39371 0.7746,0 2.40529,-0.4968 3.62376,-1.10398 z M 131.90735,108.85996 c 23.79976,-2.61478 39.8918,-14.0925 45.01359,-32.106127 1.29542,-4.556082 1.60299,-12.292262 0.69522,-17.487011 -0.90901,-5.201908 -2.86057,-11.004043 -4.77746,-14.203711 -2.03544,-3.397579 -7.0725,-8.736586 -10.32861,-10.947765 -7.20195,-4.890756 -15.45223,-5.22882 -22.82092,-0.935114 -4.21288,2.454835 -10.71875,10.003974 -13.31694,15.452429 l -0.73724,1.546003 -2.62478,-3.866957 C 114.59185,33.909396 103.49688,28.044223 93.865016,30.904579 85.212262,33.474171 77.002442,45.3273 74.90111,58.284184 c -0.851661,5.251371 -0.871159,13.985359 -0.0407,18.232825 3.581967,18.320385 18.099766,28.650161 45.14045,32.118571 6.04305,0.77511 6.76913,0.7888 11.90649,0.22438 z"
   id="path1026" /><path
   style="fill:#303030;fill-opacity:1;stroke-width:0.444448"
   d="m 196.85821,278.93139 c -4.20253,-1.31592 -10.18805,-6.42097 -14.63832,-12.48503 -5.71554,-7.78816 -9.31978,-11.22064 -17.77426,-16.92725 -5.02234,-3.38997 -6.14568,-3.82598 -6.62683,-2.57211 -0.38332,0.99892 0.41079,1.82023 3.04333,3.14754 6.81747,3.43733 8.73097,7.55932 7.36928,15.8746 -0.23723,1.44865 -0.59334,2.79593 -0.79135,2.99394 -0.19802,0.19802 -1.35278,-0.96163 -2.56613,-2.57701 -3.15302,-4.19772 -8.34887,-8.83846 -11.86536,-10.59768 -8.89782,-4.4514 -15.92916,-1.03509 -22.25407,10.81257 -1.08938,2.0406 -2.09186,3.53031 -2.22773,3.31046 -0.13587,-0.21984 -0.48483,-2.18658 -0.77545,-4.37052 -0.49188,-3.69622 -0.4053,-6.93452 0.31334,-11.71934 l 0.29408,-1.95807 -2.62337,0.30707 c -4.97372,0.58217 -7.98506,2.8778 -10.62847,8.1024 l -1.27364,2.51732 -0.64038,-1.72754 c -0.89173,-2.40565 -0.84076,-8.75741 0.0903,-11.25233 0.89401,-2.39564 0.5665,-2.82506 -2.1136,-2.77127 -5.10789,0.10253 -9.12457,3.80382 -11.173375,10.29605 -0.424281,1.34445 -0.928219,2.61584 -1.119862,2.82531 -0.56712,0.61987 -1.443875,-4.60862 -1.188205,-7.08582 0.353233,-3.4225 1.891254,-6.54281 4.365982,-8.85763 4.17594,-3.9061 8.80558,-5.20348 14.98651,-4.19971 4.2105,0.68377 5.34417,0.43828 7.66691,-1.66017 1.83625,-1.65894 2.90417,-3.33466 3.54162,-5.55732 0.35169,-1.22626 0.27977,-1.28989 -3.27769,-2.90004 -31.087413,-14.07061 -46.853332,-26.9655 -55.846017,-45.67626 -6.061792,-12.61256 -8.43391,-26.05334 -7.883127,-44.66699 0.302965,-10.23868 1.431371,-19.42685 3.885026,-31.63425 l 1.789968,-8.905437 -0.961183,-6.063679 c -1.197833,-7.556597 -1.653762,-22.848289 -0.873258,-29.288785 0.595461,-4.913568 2.164008,-11.896992 3.623455,-16.132205 0.543042,-1.575869 2.634068,-6.190001 4.646724,-10.253627 4.060678,-8.198656 4.973695,-11.606237 4.491963,-16.764992 -0.334546,-3.582573 -0.991353,-4.585013 -3.938124,-6.010496 -2.192159,-1.060444 -2.260833,-1.140402 -1.017483,-1.184667 2.880724,-0.102558 3.055545,-0.435594 1.513404,-2.883045 -0.76696,-1.2172026 -2.980749,-3.7631067 -4.919529,-5.6575648 -1.938781,-1.8944581 -3.32747,-3.4444693 -3.085975,-3.4444693 0.95399,0 7.106685,2.4069171 10.047681,3.9306244 3.737054,1.9361392 9.679831,7.6084997 11.596721,11.0690317 0.710743,1.283094 1.480005,2.333102 1.709471,2.33335 0.229465,2.49e-4 2.729483,-1.084876 5.555595,-2.411388 10.577558,-4.964861 16.198668,-6.258549 27.138548,-6.245886 6.27432,0.0073 8.74246,0.202801 12.76798,1.011539 6.38233,1.282228 12.73954,3.501754 18.94801,6.615418 2.70434,1.356279 4.9781,2.282619 5.0528,2.058536 0.0747,-0.224084 0.88233,-1.683029 1.79476,-3.2421 2.02792,-3.465117 6.65353,-8.1620101 10.00077,-10.1548764 2.81864,-1.6781542 8.77138,-4.3137827 10.76944,-4.76827 1.21969,-0.2774362 1.06296,-0.024055 -1.83873,2.9726121 -3.28919,3.3968561 -6.38355,7.2634533 -6.38355,7.9766433 0,0.225722 0.45,0.413136 1,0.416474 0.55001,0.0033 1.46232,0.129881 2.02735,0.281209 0.95445,0.255616 0.90714,0.329154 -0.66667,1.036329 -0.93171,0.418654 -2.34402,1.309896 -3.13847,1.980537 l -1.44445,1.219349 v 4.587594 c 0,6.066943 0.87038,8.752844 4.79049,14.782863 6.89234,10.601978 9.70402,18.578089 10.77218,30.558251 0.69177,7.758744 -0.0996,14.93036 -3.17156,28.739949 -0.70344,3.16228 -0.66438,3.242236 4.52092,9.252958 8.04856,9.32979 16.17338,22.90801 21.00964,35.11137 3.98443,10.0539 6.91279,21.72886 8.52808,34.00024 0.85265,6.47752 0.99796,31.96924 0.23309,40.88918 -1.22486,14.28432 -4.78537,32.49226 -9.84866,50.36463 -2.86594,10.1162 -3.96461,12.15958 -7.19624,13.38401 -1.52231,0.57678 -1.82178,0.56571 -4.1143,-0.15213 z m 5.45617,-23.20434 c 1.15863,-0.31066 1.14935,-0.40656 -0.83006,-8.57551 -1.80423,-7.446 -3.44378,-11.98619 -6.99565,-19.37212 -3.87484,-8.05755 -7.63995,-14.26821 -20.47735,-33.77802 -12.51843,-19.02505 -15.53482,-23.99577 -19.32987,-31.85367 -5.0509,-10.45822 -6.83546,-17.20697 -7.20775,-27.25787 -0.22196,-5.99219 0.11479,-10.63179 1.04036,-14.33344 0.2381,-0.95222 0.12563,-0.99968 -2.35371,-0.9932 -1.43207,0.004 -2.83042,0.15374 -3.10746,0.33334 -1.78645,1.15809 -2.36571,17.20748 -0.89157,24.70271 1.77883,9.04444 5.89429,18.87865 12.49026,29.84643 1.91112,3.1778 8.61284,13.57788 14.89272,23.11128 13.70679,20.80811 13.63607,20.6914 18.36701,30.31236 4.04463,8.22527 6.14665,14.08433 8.13965,22.68802 l 1.26118,5.44448 2.01132,-0.006 c 1.10623,-0.004 2.45214,-0.12426 2.99092,-0.26873 z m -58.27249,-10.60703 c 2.02621,-1.00971 5.49568,-4.01344 5.03992,-4.36338 -0.99041,-0.76042 -12.66251,-5.66172 -13.22781,-5.55457 -0.53443,0.1013 -0.78205,0.69889 -0.88541,2.13681 -0.25828,3.59306 0.31558,5.81273 1.91672,7.41387 1.8443,1.84431 3.9733,1.95356 7.15658,0.36727 z m -5.37422,-137.10654 c 14.76787,-2.97096 26.64578,-9.969499 32.89237,-19.38038 2.3432,-3.530185 4.97201,-9.345916 5.8322,-12.90259 1.12652,-4.657936 1.03995,-14.40502 -0.17149,-19.309273 -2.01005,-8.137192 -4.03923,-12.110364 -8.84279,-17.314337 -8.26816,-8.957385 -17.89641,-11.391839 -27.1444,-6.863324 -4.73905,2.320598 -11.21444,9.099684 -14.36522,15.038956 -0.59847,1.128137 -1.20913,2.051157 -1.35702,2.051157 -0.14789,0 -1.20222,-1.403593 -2.34295,-3.119098 -4.65338,-6.998029 -11.54425,-12.83076 -17.67891,-14.964182 -3.61113,-1.255829 -8.90142,-1.455639 -11.829613,-0.446795 -8.41103,2.897836 -15.994468,13.352955 -18.620723,25.671984 -1.102968,5.173713 -1.10393,17.521784 -0.0017,21.969411 1.03962,4.19503 4.195706,10.511351 6.914213,13.837509 6.39711,7.827012 18.504703,13.480942 34.049203,15.900082 2.44447,0.38042 4.94448,0.78192 5.5556,0.89221 2.42423,0.43753 12.88647,-0.2114 17.11123,-1.06133 z"
   id="path1102" /><path
   style="fill:#303030;fill-opacity:1;stroke-width:0.444448"
   d="m 196.84197,278.92659 c -4.41802,-1.38269 -10.06071,-6.30728 -15.31364,-13.36481 -5.38932,-7.24076 -11.69378,-12.91265 -19.73496,-17.75479 -2.94017,-1.77048 -3.57267,-1.90734 -3.97457,-0.85999 -0.38332,0.99892 0.41079,1.82023 3.04333,3.14754 5.39446,2.71985 7.80575,6.13181 7.80575,11.04505 0,2.918 -0.68584,7.28151 -1.23002,7.82569 -0.18034,0.18035 -1.52475,-1.19253 -2.98755,-3.05085 -4.83402,-6.14103 -10.9894,-10.73535 -15.71479,-11.72937 -6.88571,-1.44846 -12.58318,2.55686 -18.12777,12.74383 -1.0107,1.85695 -1.94797,3.19775 -2.08283,2.97955 -0.13485,-0.2182 -0.48298,-2.1836 -0.7736,-4.36754 -0.49188,-3.69622 -0.4053,-6.93452 0.31334,-11.71934 l 0.29408,-1.95807 -2.52973,0.29733 c -5.02377,0.59044 -8.0275,2.90992 -10.72972,8.2855 l -1.2288,2.44446 -0.65899,-1.77779 c -0.88936,-2.39927 -0.87057,-8.77947 0.033,-11.19286 0.92087,-2.45969 0.33311,-2.99278 -2.99537,-2.71676 -4.40541,0.36533 -8.03556,3.85566 -10.03318,9.64678 -0.555791,1.61122 -1.16296,3.10088 -1.349268,3.31035 -0.593012,0.66673 -1.427415,-4.69496 -1.147466,-7.37336 0.346528,-3.3154 1.903104,-6.34071 4.488634,-8.72397 4.12045,-3.7981 8.61767,-5.00424 15.07612,-4.04339 3.03575,0.45164 4.02888,0.45105 5.12526,-0.003 2.44268,-1.01179 5.81395,-5.52124 5.81395,-7.77681 0,-0.44452 -3.29447,-2.27709 -9.53403,-5.30335 C 95.478853,215.67926 82.825545,206.00176 73.9204,192.69652 60.334611,172.39789 57.566983,144.54164 65.365578,106.59201 l 1.5225,-7.408811 -0.926929,-5.924621 c -1.183806,-7.566477 -1.647338,-23.284199 -0.872051,-29.570022 1.236068,-10.021712 3.142105,-16.271743 7.766243,-25.466059 4.425409,-8.799173 4.910575,-10.360234 4.912042,-15.804878 0.0014,-5.344201 -0.44688,-6.272214 -3.799962,-7.865867 l -2.290304,-1.088536 1.82838,-0.292369 c 1.152055,-0.184221 1.828379,-0.527278 1.828379,-0.927422 0,-0.925948 -5.07013,-7.0792828 -7.418941,-9.0039567 -1.107891,-0.9078332 -1.82208,-1.714695 -1.587086,-1.7930262 0.675891,-0.2252971 6.704725,2.0495763 10.117146,3.8175252 3.737054,1.9361392 9.679831,7.6084997 11.596721,11.0690317 0.710743,1.283094 1.432396,2.333102 1.603673,2.33335 0.171276,2.49e-4 2.953356,-1.209723 6.182399,-2.688826 9.515832,-4.358842 17.291072,-6.1945126 26.252042,-6.1978877 10.99369,-0.00413 20.29794,2.2098697 31.02385,7.3823367 3.29533,1.589142 6.04883,2.717409 6.11888,2.50726 0.0701,-0.210149 0.87389,-1.657693 1.78632,-3.216764 2.15839,-3.688058 6.71875,-8.2083615 10.58369,-10.490718 2.89919,-1.7120535 9.76589,-4.6284071 10.89782,-4.6284071 0.28477,0 -0.99703,1.5855147 -2.84845,3.523366 -3.3668,3.5239941 -6.08513,6.9433931 -6.08513,7.6545091 0,0.20777 0.58364,0.377764 1.29699,0.377764 2.50293,0 2.90302,0.497127 1.06483,1.323099 -0.93233,0.418933 -2.36807,1.329682 -3.19052,2.023885 l -1.49537,1.262189 0.17885,5.362135 c 0.16223,4.863951 0.30666,5.635185 1.55454,8.301067 0.75663,1.616413 2.37685,4.416433 3.60048,6.222267 10.70982,15.805519 13.214,34.342906 7.62825,56.468878 -0.47311,1.874076 -0.86021,3.879659 -0.86021,4.45685 0,0.680116 1.57099,2.922028 4.464,6.370438 11.69513,13.94036 20.58301,30.55695 25.52141,47.71433 1.80243,6.26211 3.533,14.78924 4.47535,22.05158 0.8275,6.37723 0.97414,32.4533 0.22994,40.88918 -1.10497,12.52537 -3.6353,26.40578 -7.73747,42.44475 -4.29748,16.80259 -5.51677,19.65427 -9.04993,21.16601 -1.69851,0.72674 -2.01742,0.72536 -4.39598,-0.019 z m 5.58198,-23.35744 c 0.7616,-0.4076 0.77121,-0.63019 0.16563,-3.83736 -1.51767,-8.03768 -4.99251,-17.91922 -9.3552,-26.6038 -2.68332,-5.34155 -9.11653,-15.73561 -19.64411,-31.73876 -12.24771,-18.61794 -14.85413,-22.9089 -18.70511,-30.79432 -5.20375,-10.65539 -7.03507,-17.50051 -7.41209,-27.70505 -0.22136,-5.99118 0.11578,-10.63321 1.04099,-14.33344 0.2381,-0.95222 0.12563,-0.99968 -2.35371,-0.9932 -1.43207,0.004 -2.8283,0.15374 -3.10275,0.33334 -0.75138,0.49169 -1.50189,4.62537 -1.79148,9.86705 -0.62013,11.22507 2.17488,23.42371 8.03167,35.05375 3.37562,6.70309 7.1532,12.76832 22.11394,35.50582 16.21716,24.64703 20.95581,34.30754 24.64073,50.23418 l 1.25968,5.44448 h 2.15165 c 1.18341,0 2.51548,-0.19471 2.96016,-0.43269 z m -58.38206,-10.44913 c 1.21847,-0.60719 2.89123,-1.80126 3.71724,-2.6535 l 1.50185,-1.54951 -4.62998,-2.15903 c -2.5465,-1.18747 -5.59731,-2.5272 -6.7796,-2.97718 -2.56442,-0.97603 -2.94554,-0.66064 -2.95226,2.44314 -0.0102,4.7285 2.15055,8.00006 5.28383,8.00006 0.90394,0 2.64045,-0.4968 3.85892,-1.10398 z m -9.95258,-136.44947 c 13.26006,-1.75182 23.97954,-6.38995 31.80493,-13.761431 7.27418,-6.852236 11.09507,-14.430037 12.13198,-24.06084 1.14699,-10.653197 -1.78645,-22.010878 -7.55841,-29.264596 -7.72577,-9.709109 -16.96423,-13.406218 -26.2634,-10.510265 -3.85861,1.201651 -6.29619,2.883657 -10.39234,7.17104 -3.06083,3.203736 -7.81116,9.712007 -7.81116,10.70181 0,0.989149 -0.89884,0.143237 -2.79221,-2.627797 -4.56505,-6.681192 -9.73651,-11.351189 -15.74967,-14.222475 -3.34199,-1.595804 -3.62268,-1.651332 -8.347205,-1.651332 -4.391609,0 -5.151385,0.122972 -7.469081,1.208896 -6.607223,3.095724 -13.041003,12.029404 -15.924327,22.111863 -1.858986,6.500535 -2.123257,18.324643 -0.55656,24.90181 0.922108,3.871112 4.121681,10.292554 6.722629,13.492106 6.720772,8.267541 18.934234,13.737991 36.783034,16.475251 5.35961,0.82194 9.40112,0.83136 15.42179,0.036 z"
   id="path1141" /><path
   style="fill:#f5f5f5;fill-opacity:1;stroke-width:0.444448"
   d="m 196.55542,278.88231 c -4.46593,-1.64003 -9.68843,-6.26915 -15.28357,-13.54707 -5.68162,-7.3904 -14.71122,-15.30505 -20.96055,-18.3724 -1.64902,-0.80938 -1.96905,-0.84833 -2.32612,-0.28311 -0.64471,1.02051 -0.32297,1.44025 2.26856,2.95955 6.44631,3.77918 8.41414,6.46879 8.41414,11.50031 0,2.91552 -0.68576,7.28178 -1.22883,7.82399 -0.17971,0.17942 -1.72471,-1.40099 -3.43333,-3.51202 -3.63952,-4.49666 -9.213,-9.077 -12.6713,-10.4134 -3.56399,-1.37724 -7.5706,-1.30725 -10.47206,0.18293 -3.11412,1.5994 -7.09931,6.04638 -9.81226,10.94927 -1.2563,2.27041 -2.39357,3.95102 -2.52728,3.73469 -0.1337,-0.21634 -0.48088,-2.18021 -0.7715,-4.36415 -0.49179,-3.69558 -0.40527,-6.93519 0.31294,-11.71638 l 0.29368,-1.9551 -2.40074,0.31769 c -4.94496,0.65436 -7.96996,2.90437 -10.64016,7.91417 l -1.46388,2.74651 -0.53898,-1.55681 c -0.9533,-2.75354 -1.18147,-5.94597 -0.61996,-8.67411 0.29603,-1.43829 0.56112,-3.21507 0.58908,-3.94841 0.046,-1.20665 -0.0943,-1.34717 -1.47709,-1.47884 -2.29119,-0.21818 -5.11593,0.73935 -7.04026,2.3865 -1.77355,1.51809 -4.02359,5.31916 -4.987606,8.42574 -0.856177,2.75905 -1.207076,2.74838 -1.788928,-0.0544 -1.48718,-7.1637 1.912093,-13.82072 8.600174,-16.84228 3.264,-1.47462 5.93134,-1.74132 10.7704,-1.07694 l 4.20856,0.57782 1.87043,-1.31459 c 2.20312,-1.54842 4.22208,-4.2833 4.60237,-6.23437 l 0.27073,-1.38902 -9.93342,-4.87116 C 106.6061,221.0239 99.005697,216.57247 91.902735,211.29038 63.189741,189.93811 55.029053,157.72684 65.36182,106.53001 l 1.507792,-7.470808 -0.917697,-5.86262 c -1.173234,-7.495098 -1.634621,-23.244656 -0.864444,-29.508026 1.252938,-10.189357 3.059244,-16.044937 8.06132,-26.13273 4.060396,-8.188684 5.098811,-11.934877 4.663616,-16.824492 -0.327334,-3.677751 -0.911474,-4.594818 -3.887246,-6.102756 l -2.287333,-1.159079 1.848024,-0.295511 c 1.145824,-0.183225 1.848024,-0.531668 1.848024,-0.91702 0,-0.900712 -3.267855,-4.9342975 -6.599434,-8.1458273 -1.584898,-1.5277888 -2.683437,-2.7777978 -2.441198,-2.7777978 1.061123,0 7.061813,2.3016824 9.92982,3.808777 3.964869,2.0834797 8.674412,6.4245081 11.309884,10.4249041 1.123179,1.704877 2.11542,3.099777 2.204981,3.099777 0.08956,0 2.735329,-1.179921 5.879486,-2.622047 10.863945,-4.982949 18.113145,-6.5072778 29.050145,-6.10853 10.63893,0.38788 18.09176,2.2496 27.9413,6.979743 3.02318,1.451851 5.74684,2.639729 6.05258,2.639729 0.30573,0 1.33225,-1.33785 2.28114,-2.973001 2.20333,-3.79682 6.71754,-8.298718 10.64999,-10.620945 2.94666,-1.7400869 9.77188,-4.6284071 10.93712,-4.6284071 0.30639,0 -0.66134,1.250009 -2.1505,2.7777978 -3.13444,3.2157489 -6.82238,7.7298423 -6.82238,8.3506883 0,0.234934 0.65,0.430215 1.44445,0.433959 1.9883,0.0094 2.99603,0.675178 1.56538,1.03425 -0.59107,0.148348 -2.03333,1.001718 -3.20503,1.896378 l -2.13037,1.626654 0.18432,5.384678 c 0.21193,6.191003 0.71363,7.63085 4.89608,14.051406 11.00608,16.895629 13.42064,33.674185 8.07763,56.13072 -0.62774,2.638357 -1.02973,5.238376 -0.89333,5.77782 0.13641,0.539439 2.04453,3.137196 4.24027,5.772796 15.85003,19.02514 24.70118,38.39045 29.19491,63.87517 2.10213,11.92155 2.20648,39.925 0.2059,55.25796 -1.71294,13.12836 -6.67501,35.47986 -10.47435,47.18137 -1.68453,5.18814 -2.88693,6.9748 -5.42472,8.06065 -1.73516,0.74242 -2.51721,0.73184 -4.68253,-0.0633 z m 5.63191,-23.15024 c 1.01916,-0.39109 0.88523,-2.19855 -0.60054,-8.10435 -2.75797,-10.96274 -6.63533,-20.09249 -13.11871,-30.88974 -3.58612,-5.97224 -5.71955,-9.29465 -18.23211,-28.39304 -15.46617,-23.6066 -20.14009,-33.34029 -22.24707,-46.33066 -1.00236,-6.17997 -0.7344,-17.73245 0.50338,-21.70225 0.22488,-0.72121 -0.0272,-0.78683 -2.56129,-0.66667 -2.5068,0.11887 -2.86885,0.255 -3.34831,1.25895 -0.8696,1.82085 -1.59275,10.88583 -1.2575,15.76334 1.07017,15.56997 6.1493,27.27245 22.80414,52.54153 18.50041,28.06923 20.936,32.10188 25.80644,42.72809 2.48946,5.43147 4.69689,12.23271 6.3319,19.50898 l 1.02365,4.55559 h 2.0965 c 1.15307,0 2.41286,-0.12139 2.79952,-0.26977 z m -58.63016,-10.44391 c 1.095,-0.51471 2.84283,-1.69856 3.88407,-2.63077 l 1.89317,-1.69493 -4.22225,-1.95839 c -7.86223,-3.64671 -9.33235,-4.15959 -9.82833,-3.42882 -0.64271,0.94697 -0.20473,6.19934 0.6557,7.86322 1.42577,2.75714 4.23563,3.43942 7.61764,1.84969 z m -5.32066,-137.31034 c 23.14209,-4.46596 38.12389,-18.531945 39.73989,-37.310645 1.48251,-17.227497 -5.97613,-32.358721 -19.0181,-38.581726 -2.85862,-1.363995 -3.79922,-1.582962 -7.55561,-1.758903 -7.15316,-0.335036 -11.61063,1.65564 -17.48073,7.806782 -2.95856,3.100198 -7.0125,8.584893 -7.73277,10.46188 -0.15586,0.406163 -0.42528,0.738481 -0.59869,0.738481 -0.17343,0 -1.39195,-1.550012 -2.70784,-3.44447 -3.12032,-4.492258 -8.85258,-10.122095 -12.45919,-12.236569 -6.41951,-3.763609 -13.553449,-4.493914 -18.804143,-1.924989 -7.636736,3.736307 -14.844612,14.887728 -16.694483,25.828309 -1.388402,8.211339 -0.928302,18.102673 1.108617,23.833318 4.971932,13.987976 16.190407,22.000902 36.635539,26.167352 9.77199,1.99141 16.82843,2.10765 25.56751,0.42118 z"
   id="path1180" /><path
   style="fill:#f5f5f5;fill-opacity:1;stroke-width:0.444448"
   d="m 146.39318,79.413509 c -2.67757,-1.001005 -4.64674,-2.422412 -7.24724,-5.231257 l -2.47755,-2.676047 1.72061,-2.530641 c 1.97068,-2.898449 5.4665,-6.310059 7.59219,-7.409295 4.72675,-2.444298 11.07483,-0.580476 17.11435,5.024848 l 2.07302,1.923984 -0.76709,1.187149 c -1.49938,2.320421 -7.54402,7.932395 -9.6028,8.915432 -2.61694,1.249557 -6.26734,1.595173 -8.40549,0.795827 z"
   id="path1330" /><path
   style="fill:#f5f5f5;fill-opacity:1;stroke-width:0.444448"
   d="M 95.77559,78.722803 C 92.058114,77.50394 88.873485,74.379572 86.772677,69.890249 l -1.374199,-2.936595 2.114498,-1.914379 c 1.162973,-1.052908 3.577398,-2.637383 5.365388,-3.521055 4.007219,-1.980475 7.456576,-2.188325 10.651236,-0.641818 2.62929,1.272816 6.29286,4.994914 8.35051,8.483911 l 1.6571,2.809807 -2.10155,1.525921 c -5.25683,3.816961 -12.3781,6.102835 -15.66007,5.026762 z"
   id="path1369" /><path
   style="fill:#f5f5f5;fill-opacity:1;stroke-width:0.444448"
   d="m 124.50618,101.23245 c -2.00215,-3.603013 -3.28457,-7.490379 -3.87758,-11.753991 -0.52505,-3.774946 -0.29909,-5.739581 0.93933,-8.167088 2.25813,-4.426285 7.27771,-4.02413 9.55037,0.765149 1.48301,3.125225 -0.0382,12.720235 -2.95656,18.64824 -0.77561,1.57549 -1.56692,2.96139 -1.75845,3.07976 -0.19154,0.11838 -1.04524,-1.03905 -1.89711,-2.57207 z"
   id="path1408" /></svg>
